<svg xmlns="http://www.w3.org/2000/svg" viewBox="0 0 189.96 133.05"><defs><style>.cls-1{fill:#fff;}.cls-1,.cls-2,.cls-3{stroke:#000;stroke-miterlimit:10;}.cls-1,.cls-2{stroke-width:2px;}.cls-2,.cls-3{fill:none;}</style></defs><g id="Layer_2" data-name="Layer 2"><g id="Layer_1-2" data-name="Layer 1"><path class="cls-1" d="M105.29,32.16c44,.92,78.22,7.69,78.22,15.89,0,8.84-39.62,16-88.5,16s-88.5-7.16-88.5-16C6.51,40,39.81,33.26,83,32.2"/><path class="cls-1" d="M184.51,117.05c-1,8-39.62,15-88.5,15s-83.8-8.29-89.5-14c-1-1-2.12-2.65-2-3"/><path class="cls-2" d="M184.3,45.22c5.16,5.49,5.09,13.35,4.21,20.83s-2,14.47-2,22c0,11-.2,14,0,18,.15,3-1.63,8.46-2,11"/><path class="cls-2" d="M5.24,49.93C1,55.14.85,62.48,1.06,69.2a461.25,461.25,0,0,0,3.79,46.36"/><path d="M3.53,59.34c-.08-1.7,1.9-2.52,3.37-2.25,4.48.95,3.36,8.38,4.15,11.86a100.86,100.86,0,0,0,3.72,16.86c1.69,5.36,3.68,11,7.69,15a13.7,13.7,0,0,0,15.1,3.06c8.36-3.46,9.61-14,16.23-19.51,5-4.28,12-4.13,15.31,2a31.31,31.31,0,0,0,2.44,3.55A10,10,0,0,0,83,92.42c2.51-1.14,4.32-3.69,7.17-4.9a15.65,15.65,0,0,1,17,2.71c3.42,3.15,4.27,7.61,7.24,10.83a15,15,0,0,0,18.69,2.49c10-6.58,11.12-19.5,17.44-29,6-10,20.7-14.75,23.35.31A46.45,46.45,0,0,0,176.69,83,9.73,9.73,0,0,0,179,86.44c2.52,2.27,5.33-.53,6.19-3.06l.18.07c-.87,2.9-3.76,5.85-6.76,3.48-2.32-2-3.26-4.93-4.42-7.63-1.66-3.77-1.59-8.73-5.22-11.24-3.46-2.44-8.05-1-11.2,1.32-4.58,3.38-7.18,8.63-9.39,13.79-3.37,8-6.3,17.3-14.14,22.15a17,17,0,0,1-21.13-3c-3-3.2-3.94-8-7-10.93a14.47,14.47,0,0,0-15.43-2.85c-2.71,1.06-4.54,3.52-7.27,4.68A11.11,11.11,0,0,1,74.6,93c-4.37-1.65-5.38-6.83-8.74-9.56S57.34,82.2,54.33,85a25.21,25.21,0,0,0-5,6.88c-4.29,8.71-9,16.27-20.14,14.54C19.7,104.58,15.68,94.49,13.3,86.26A93.38,93.38,0,0,1,9.7,64.7c-.19-2.53.12-6.34-2.89-7.15-1.26-.29-3.06.27-3.08,1.78Z"/><path class="cls-3" d="M106,27.55a12,12,0,0,1-24,0c0-6.62,3-12,12-10C102,15.55,106,20.93,106,27.55Z"/><path d="M94,19.71c1.3-8.89,7.46-17.66,16.55-19.71l.29,1c-9,1.67-15.24,10.09-16.84,18.75Z"/><path d="M92.46,19.16a.88.88,0,0,0,.77.33,7.81,7.81,0,0,0,2.71-.28c0,1.65-3.91,1.69-3.48-.05Z"/></g></g></svg>