<svg xmlns="http://www.w3.org/2000/svg" viewBox="0 0 182.25 158.83"><defs><style>.cls-1{fill:none;stroke:#000;stroke-miterlimit:10;stroke-width:2px;}</style></defs><g id="Layer_2" data-name="Layer 2"><g id="Layer_1-2" data-name="Layer 1"><path class="cls-1" d="M7.88,133.9a11.77,11.77,0,0,0,1.45,5.5,11.93,11.93,0,0,0,3.6,3.17c7.23,4.82,14.52,9.67,22.57,13a28.67,28.67,0,0,0,8.64,2.27c3.9.27,7.76-.74,11.54-1.73l109.13-28.68c2.89-.76,5.95-1.62,7.93-3.86,1.76-2,2.34-4.78,2.76-7.43,1.42-8.91,1-17.53,1.27-26.48.15-6,6.35-12.86,3.91-18.37-1.48-3.36-5.41-5.89-8.46-7.11-5-2-37-12-52.76-11.1C102.74,54,79.9,61.83,63,65.34a302.51,302.51,0,0,0-48.67,14c-3.93,1.52-8,3.16-10.71,6.4-6.14,7.41.18,13.7,2.48,20.79C8.82,115,7.11,125.12,7.88,133.9Z"/><path d="M7.75,85.43a74.58,74.58,0,0,1,42.09,5.81c5.93,3.07,15.1,6.62,16.28,14,.78,4.61-2.42,7-5.76,9.29-2.72,2.07-4.1,5.27-4.74,8.61C54,132,57.81,143.55,50,150.31c9-9.5-.42-23.92,6.64-34.36,1.73-3.08,5.85-4.22,7.26-7.38C66.33,100.54,54.7,96,49.05,93a83,83,0,0,0-41.3-7.53Z"/><path d="M102.22,4.54c-.89,5.65,2.24,10.43,3.72,15.71,1.66,5.61.55,11.8-2.15,16.87-1.62,3.34-3.4,6.41-4.37,10a18.58,18.58,0,0,1,.55-5.59c1.32-5.2,3.87-10.07,3.75-15.5.28-7.13-5.07-14.55-1.5-21.5Z"/><path d="M77.92,0c-3.75,9.89,4.69,18.33,6.23,27.79A30.52,30.52,0,0,1,79.7,49.65a18.85,18.85,0,0,0-2.63,6.7A15.49,15.49,0,0,1,78.36,49c2.85-6.56,4.25-13.69,2.85-20.7C79.71,19.5,71.7,8.85,77.92,0Z"/><path d="M56.22,7.46C45.08,17.59,63.7,36.15,52.87,52.21c-1.23,1.86-2.59,3.59-2.87,5.85-.41-2.27.72-4.54,1.58-6.56,7.63-14.13-9.61-36.11,4.64-44Z"/><path d="M167.32,87.8c.48.37-.35.92-.67,1l-1.29.7a139.79,139.79,0,0,1-30.05,11.37,318.1,318.1,0,0,1-40.22,7.6c-3.93.25-7.76-.41-11.67,0-1.93.15-3.87.37-5.8.58a54.3,54.3,0,0,1,11.6-1.59,51.25,51.25,0,0,0,11.45-1.19c15.21-3.08,30.51-5.81,45.39-10.2a179,179,0,0,0,20.52-7.36,1.89,1.89,0,0,0,.63-.33c.16-.14.36-.43.11-.59Z"/></g></g></svg>