<svg xmlns="http://www.w3.org/2000/svg" viewBox="0 0 152.35 154.41"><defs><style>.cls-1{fill:none;stroke:#000;stroke-miterlimit:10;}</style></defs><g id="Layer_2" data-name="Layer 2"><g id="Layer_1-2" data-name="Layer 1"><path class="cls-1" d="M101.13,68.4c0-1-.5-7.1,0-8,2.84-5.11,20-2.85,25-3,4-.12,9.05,0,13,0s8.86-.76,11.14-4a7.9,7.9,0,0,0,1.58-4.17c.19-4.65-4.78-7.59-9-9.46-11.07-4.87-23.63-4-35.68-4.38-5.85-.16-13.14-.84-19-1a18.33,18.33,0,0,0,7-13c.32-5.18-2.1-11.27-5.46-15.23A13.69,13.69,0,0,0,87.23,4C79.36-1.62,67.37-.33,60.88,6.83S56.13,30.4,64.13,36.4c-5.55.7-15.45,1.3-21,2C31.39,39.87,6,38.36,1.22,52A10.86,10.86,0,0,0,.78,58.2c1,3.81,4.35,4.2,8.35,4.2s8.09.36,12,0c8.77-.8,17.31-.69,26-1a7.19,7.19,0,0,1,6,3c.71,1.2.66,4.34.76,5.73.32,4.64.62,9.3.89,13.94s.94,9.42-.4,14a35.5,35.5,0,0,1-2.93,6.58c-5.7,10.65-11.88,21-18.05,31.41-.67,1.12-1.67-.25-2.82-.84s-2.24-1.46-3.53-1.52c-2.22-.1-3.82,2.41-3.61,4.62s1.64,4.07,3,5.8a29.82,29.82,0,0,0,4.44,4.68c3.44,2.76,7.86,4,12.2,4.7a15.48,15.48,0,0,0,5.79.18c3.8-.79,6.47-4.31,8.46-7.33,7.54-11.41,14-22.72,21.77-34a8.7,8.7,0,0,0,1-2s1-.43,1.48-.21a1,1,0,0,1,.3.27c7,8.14,12.63,17.27,18.29,26.35.93,1.59,2.75,4.42,3.5,5.63,1.26,2,2.7,4,3.81,6.11,1.63,3.1,3.15,4.9,7,5.06,7,.3,13.34-3.94,18.23-8.91,2-2,4-4.44,4.28-7.29a4.11,4.11,0,0,0-.84-3.27c-1.32-1.43-3.66-1.09-5.48-.38a31.79,31.79,0,0,0-4.18,2.16c-10.8-13.41-15.41-30.52-22.22-46.36C101.48,83,101,75.56,101.13,68.4Z"/><circle class="cls-1" cx="68.63" cy="16.9" r="3.5"/><circle class="cls-1" cx="82.63" cy="16.9" r="3.5"/><path class="cls-1" d="M65.26,25.32c1.78,2.44,3.41,4.19,6.38,5.13a12.76,12.76,0,0,0,8.19-.1c2.42-.93,4-3.17,5.31-5.26"/><circle class="cls-1" cx="76.13" cy="52.4" r="4"/><circle class="cls-1" cx="77.13" cy="70.4" r="4"/><circle class="cls-1" cx="78.63" cy="88.9" r="4.5"/></g></g></svg>