<svg xmlns="http://www.w3.org/2000/svg" viewBox="0 0 247.78 176.05"><defs><style>.cls-1{fill:none;stroke:#000;stroke-miterlimit:10;}</style></defs><g id="Layer_2" data-name="Layer 2"><g id="Layer_1-2" data-name="Layer 1"><path class="cls-1" d="M42.05,113.78c1.71-2.35,3.35-4.74,4.89-7.16l22.3-35.19L108.59,9.35c1.72-2.73,3.34-5.71,5.28-8.27A7,7,0,0,1,114,2.32c.13,1.23.45,2.43.7,3.65,1.73,8.14,1.09,16.93.21,25.14-2.57,24.12-9.53,48.51-23.23,68.72a102.68,102.68,0,0,1-11.63,14C78.89,115.08,67,126.81,66,126c-2.21-1.79-4.5-4.09-7.11-5.21-.86.57-1.73.8-2.27,1.68-5.16,8.46-9.12,17.58-14,26.18-4.44,7.77-9.56,17-17,22.33a25.06,25.06,0,0,1-19.56,4c-1.13-.25-5-.74-5.48-2a1.73,1.73,0,0,1-.07-.75c.21-5.18,3-8.36,5.92-12.33s5.81-7.83,8.76-11.71C24,136.62,33.64,125.62,42.05,113.78ZM14.79,163.07a2,2,0,1,0,2.39,1.52A2,2,0,0,0,14.79,163.07ZM26,149.28a2,2,0,1,0,2.39,1.51A2,2,0,0,0,26,149.28Zm11-14.77A2,2,0,1,0,39.47,136,2,2,0,0,0,37.08,134.51Z"/><path class="cls-1" d="M206.8,113.55a4.22,4.22,0,0,0-1.46,2.08,4.89,4.89,0,0,0,.45,2.75,197.7,197.7,0,0,0,15,31.19c3,5.13,6.55,10.3,11.54,12.71s11.82.91,14.14-4.68a14.13,14.13,0,0,0-.2-10,38.2,38.2,0,0,0-4.92-8.62,252.72,252.72,0,0,0-15.74-21.05c-2.19-2.54-6.18-8.49-9.27-9.4S209.24,111.35,206.8,113.55Z"/><path class="cls-1" d="M216.44,103.78l-1.29,3.28c3.32-5.29,3.3-12,3.13-18.2-.23-8.17-.52-16.35-1.13-24.51-.88-11.94-2.49-24.1-7.77-34.85-2.88-5.85-6.94-11.3-12.51-14.7s-12.78-4.48-18.7-1.75c-8.68,4-12.17,14.56-12.81,24.1a72.36,72.36,0,0,0,10.8,42.95c8,12.71,22.14,21.32,36.06,26.93a173.46,173.46,0,0,0-8.83-47.38,53.12,53.12,0,0,0-5.6-12.46,63.13,63.13,0,0,0-8.91-10.08c-4.33-4.24-8.7-8.52-13.81-11.79S164,19.81,158,20.07a15.89,15.89,0,0,0-8.44,2.63c-3.21,2.27-5.14,6-6.24,9.73-2.46,8.42-1.27,17.62,2.07,25.73S154.05,73.4,160,79.88a141.26,141.26,0,0,0,44,32.5c-4.31-23.5-15.68-46.64-33.29-62.78-4.26-3.92-9-7.56-14.47-9.35s-12-1.45-16.56,2.09c-4.78,3.68-6.7,10.2-6.19,16.22s3.12,11.64,6,17A69.39,69.39,0,0,0,147,87.19c5.84,7,13.67,11.94,21.37,16.8a92.58,92.58,0,0,0,14,7.75,46.58,46.58,0,0,0,20.87,3.37"/><path class="cls-1" d="M47.63,111.35l10,7.8-2.07-.43"/></g></g></svg>